<svg width="109" height="49" viewBox="0 0 109 49" version="1.1" xmlns="http://www.w3.org/2000/svg" xmlns:xlink="http://www.w3.org/1999/xlink">
<title>Group</title>
<desc>Created using Figma</desc>
<g id="Canvas" transform="translate(2614 129)">
<g id="Group">
<g id="logo">
<g id="Group">
<g id="Vector">
<use xlink:href="#path0_fill" transform="translate(-2601.97 -101.435)" fill="#EB5959"/>
</g>
<g id="Vector">
<use xlink:href="#path1_fill" transform="translate(-2576.18 -101.435)" fill="#EB5959"/>
</g>
<g id="Vector">
<use xlink:href="#path2_fill" transform="translate(-2614 -129)" fill="#EB5959"/>
</g>
</g>
</g>
<g id="Logo">
<g id="PLAY BACK">
<use xlink:href="#path3_fill" transform="translate(-2567 -124)" fill="#FFFCFC"/>
<use xlink:href="#path3_fill" transform="translate(-2567 -124)" fill="#FFFFFF"/>
<use xlink:href="#path3_fill" transform="translate(-2567 -124)" fill="url(#paint5_linear)"/>
</g>
</g>
</g>
</g>
<defs>
<linearGradient id="paint5_linear" x1="0" y1="0" x2="1" y2="0" gradientUnits="userSpaceOnUse" gradientTransform="matrix(4.59243e-15 54 -75 3.30655e-15 75 -3.30655e-15)">
<stop offset="0" stop-color="#FFFFFF"/>
<stop offset="1" stop-color="#FFFFFF" stop-opacity="0"/>
</linearGradient>
<path id="path0_fill" d="M 3.44031 -6.10352e-07L 1.71272e-07 -6.10352e-07L 1.71272e-07 21.435L 3.44031 21.435C 4.38316 21.435 5.15765 20.745 5.15765 19.905L 5.15765 1.53C 5.16327 0.685001 4.38878 -6.10352e-07 3.44031 -6.10352e-07Z"/>
<path id="path1_fill" d="M 1.71735 -6.10352e-07C 0.774491 -6.10352e-07 -6.85089e-07 0.690001 -6.85089e-07 1.53L -6.85089e-07 19.905C -6.85089e-07 20.745 0.774491 21.435 1.71735 21.435L 5.15765 21.435L 5.15765 -6.10352e-07L 1.71735 -6.10352e-07Z"/>
<path id="path2_fill" d="M 55 24.5C 55 10.97 42.6867 0 27.5 0C 12.3133 0 0 10.97 0 24.5C 0 27.44 0.583673 30.255 1.64439 32.865C 0.60051 34.455 0 36.305 0 38.28C 0 43.68 4.48418 48.145 10.3153 48.89L 10.3153 27.675C 8.60357 27.895 7.00408 28.435 5.60102 29.225C 5.3148 27.945 5.15765 26.625 5.15765 25.27C 5.15765 14.275 15.1587 5.365 27.5 5.365C 39.8413 5.365 49.8423 14.275 49.8423 25.27C 49.8423 26.625 49.6908 27.95 49.399 29.225C 47.9959 28.435 46.402 27.895 44.6847 27.675L 44.6847 48.895C 50.5158 48.15 55 43.68 55 38.28C 55 36.305 54.3995 34.455 53.3556 32.865C 54.4163 30.255 55 27.44 55 24.5Z"/>
<path id="path3_fill" d="M 19.9994 4.382C 21.8594 4.382 23.2874 4.712 24.2834 5.372C 25.2794 6.02 25.7774 7.088 25.7774 8.576C 25.7774 10.076 25.2734 11.162 24.2654 11.834C 23.2574 12.494 21.8174 12.824 19.9454 12.824L 19.0634 12.824L 19.0634 17L 16.2554 17L 16.2554 4.706C 16.8674 4.586 17.5154 4.502 18.1994 4.454C 18.8834 4.406 19.4834 4.382 19.9994 4.382ZM 20.1794 6.776C 19.9754 6.776 19.7714 6.782 19.5674 6.794C 19.3754 6.806 19.2074 6.818 19.0634 6.83L 19.0634 10.43L 19.9454 10.43C 20.9174 10.43 21.6494 10.298 22.1414 10.034C 22.6334 9.77 22.8794 9.278 22.8794 8.558C 22.8794 8.21 22.8134 7.922 22.6814 7.694C 22.5614 7.466 22.3814 7.286 22.1414 7.154C 21.9134 7.01 21.6314 6.914 21.2954 6.866C 20.9594 6.806 20.5874 6.776 20.1794 6.776ZM 36.1734 14.588L 36.1734 17L 27.8394 17L 27.8394 4.526L 30.6474 4.526L 30.6474 14.588L 36.1734 14.588ZM 46.8965 17C 46.7645 16.568 46.6145 16.124 46.4465 15.668C 46.2905 15.212 46.1345 14.756 45.9785 14.3L 41.1185 14.3C 40.9625 14.756 40.8005 15.212 40.6325 15.668C 40.4765 16.124 40.3325 16.568 40.2005 17L 37.2845 17C 37.7525 15.656 38.1965 14.414 38.6165 13.274C 39.0365 12.134 39.4445 11.06 39.8405 10.052C 40.2485 9.044 40.6445 8.09 41.0285 7.19C 41.4245 6.278 41.8325 5.39 42.2525 4.526L 44.9345 4.526C 45.3425 5.39 45.7445 6.278 46.1405 7.19C 46.5365 8.09 46.9325 9.044 47.3285 10.052C 47.7365 11.06 48.1505 12.134 48.5705 13.274C 48.9905 14.414 49.4345 15.656 49.9025 17L 46.8965 17ZM 43.5305 7.352C 43.4705 7.532 43.3805 7.778 43.2605 8.09C 43.1405 8.402 43.0025 8.762 42.8465 9.17C 42.6905 9.578 42.5165 10.028 42.3245 10.52C 42.1445 11.012 41.9585 11.528 41.7665 12.068L 45.3125 12.068C 45.1205 11.528 44.9345 11.012 44.7545 10.52C 44.5745 10.028 44.4005 9.578 44.2325 9.17C 44.0765 8.762 43.9385 8.402 43.8185 8.09C 43.6985 7.778 43.6025 7.532 43.5305 7.352ZM 54.2962 9.656C 54.8002 8.804 55.2802 7.952 55.7362 7.1C 56.1922 6.248 56.6122 5.39 56.9962 4.526L 60.0922 4.526C 59.4082 5.87 58.7002 7.172 57.9682 8.432C 57.2362 9.692 56.4622 10.958 55.6462 12.23L 55.6462 17L 52.8382 17L 52.8382 12.266C 52.0222 10.994 51.2422 9.722 50.4982 8.45C 49.7662 7.178 49.0582 5.87 48.3742 4.526L 51.6322 4.526C 52.0162 5.39 52.4302 6.248 52.8742 7.1C 53.3182 7.952 53.7922 8.804 54.2962 9.656ZM 18.8929 37.162C 18.2089 37.162 17.5249 37.138 16.8409 37.09C 16.1689 37.054 15.4669 36.958 14.7349 36.802L 14.7349 24.706C 15.3109 24.598 15.9409 24.52 16.6249 24.472C 17.3089 24.412 17.9449 24.382 18.5329 24.382C 19.3249 24.382 20.0509 24.442 20.7109 24.562C 21.3829 24.67 21.9589 24.862 22.4389 25.138C 22.9189 25.414 23.2909 25.78 23.5549 26.236C 23.8309 26.68 23.9689 27.232 23.9689 27.892C 23.9689 28.888 23.4889 29.674 22.5289 30.25C 23.3209 30.55 23.8609 30.958 24.1489 31.474C 24.4369 31.99 24.5809 32.572 24.5809 33.22C 24.5809 34.528 24.1009 35.512 23.1409 36.172C 22.1929 36.832 20.7769 37.162 18.8929 37.162ZM 17.4709 31.564L 17.4709 34.786C 17.6749 34.81 17.8969 34.828 18.1369 34.84C 18.3769 34.852 18.6409 34.858 18.9289 34.858C 19.7689 34.858 20.4469 34.738 20.9629 34.498C 21.4789 34.258 21.7369 33.814 21.7369 33.166C 21.7369 32.59 21.5209 32.182 21.0889 31.942C 20.6569 31.69 20.0389 31.564 19.2349 31.564L 17.4709 31.564ZM 17.4709 29.422L 18.8389 29.422C 19.7029 29.422 20.3209 29.314 20.6929 29.098C 21.0649 28.87 21.2509 28.51 21.2509 28.018C 21.2509 27.514 21.0589 27.16 20.6749 26.956C 20.2909 26.752 19.7269 26.65 18.9829 26.65C 18.7429 26.65 18.4849 26.656 18.2089 26.668C 17.9329 26.668 17.6869 26.68 17.4709 26.704L 17.4709 29.422ZM 35.0049 37C 34.8729 36.568 34.7229 36.124 34.5549 35.668C 34.3989 35.212 34.2429 34.756 34.0869 34.3L 29.2269 34.3C 29.0709 34.756 28.9089 35.212 28.7409 35.668C 28.5849 36.124 28.4409 36.568 28.3089 37L 25.3929 37C 25.8609 35.656 26.3049 34.414 26.7249 33.274C 27.1449 32.134 27.5529 31.06 27.9489 30.052C 28.3569 29.044 28.7529 28.09 29.1369 27.19C 29.5329 26.278 29.9409 25.39 30.3609 24.526L 33.0429 24.526C 33.4509 25.39 33.8529 26.278 34.2489 27.19C 34.6449 28.09 35.0409 29.044 35.4369 30.052C 35.8449 31.06 36.2589 32.134 36.6789 33.274C 37.0989 34.414 37.5429 35.656 38.0109 37L 35.0049 37ZM 31.6389 27.352C 31.5789 27.532 31.4889 27.778 31.3689 28.09C 31.2489 28.402 31.1109 28.762 30.9549 29.17C 30.7989 29.578 30.6249 30.028 30.4329 30.52C 30.2529 31.012 30.0669 31.528 29.8749 32.068L 33.4209 32.068C 33.2289 31.528 33.0429 31.012 32.8629 30.52C 32.6829 30.028 32.5089 29.578 32.3409 29.17C 32.1849 28.762 32.0469 28.402 31.9269 28.09C 31.8069 27.778 31.7109 27.532 31.6389 27.352ZM 44.8565 37.252C 42.8285 37.252 41.2805 36.688 40.2125 35.56C 39.1565 34.432 38.6285 32.83 38.6285 30.754C 38.6285 29.722 38.7905 28.804 39.1145 28C 39.4385 27.184 39.8825 26.5 40.4465 25.948C 41.0105 25.384 41.6825 24.958 42.4625 24.67C 43.2425 24.382 44.0885 24.238 45.0005 24.238C 45.5285 24.238 46.0085 24.28 46.4405 24.364C 46.8725 24.436 47.2505 24.526 47.5745 24.634C 47.8985 24.73 48.1685 24.832 48.3845 24.94C 48.6005 25.048 48.7565 25.132 48.8525 25.192L 48.0425 27.46C 47.6585 27.256 47.2085 27.082 46.6925 26.938C 46.1885 26.794 45.6125 26.722 44.9645 26.722C 44.5325 26.722 44.1065 26.794 43.6865 26.938C 43.2785 27.082 42.9125 27.316 42.5885 27.64C 42.2765 27.952 42.0245 28.36 41.8325 28.864C 41.6405 29.368 41.5445 29.98 41.5445 30.7C 41.5445 31.276 41.6045 31.816 41.7245 32.32C 41.8565 32.812 42.0605 33.238 42.3365 33.598C 42.6245 33.958 42.9965 34.246 43.4525 34.462C 43.9085 34.666 44.4605 34.768 45.1085 34.768C 45.5165 34.768 45.8825 34.744 46.2065 34.696C 46.5305 34.648 46.8185 34.594 47.0705 34.534C 47.3225 34.462 47.5445 34.384 47.7365 34.3C 47.9285 34.216 48.1025 34.138 48.2585 34.066L 49.0325 36.316C 48.6365 36.556 48.0785 36.772 47.3585 36.964C 46.6385 37.156 45.8045 37.252 44.8565 37.252ZM 58.2024 37C 57.9504 36.592 57.6504 36.154 57.3024 35.686C 56.9664 35.206 56.5944 34.732 56.1864 34.264C 55.7904 33.784 55.3764 33.328 54.9444 32.896C 54.5124 32.452 54.0804 32.062 53.6484 31.726L 53.6484 37L 50.8404 37L 50.8404 24.526L 53.6484 24.526L 53.6484 29.242C 54.3804 28.474 55.1124 27.676 55.8444 26.848C 56.5884 26.008 57.2784 25.234 57.9144 24.526L 61.2444 24.526C 60.3924 25.534 59.5344 26.506 58.6704 27.442C 57.8184 28.378 56.9184 29.32 55.9704 30.268C 56.9664 31.096 57.9264 32.08 58.8504 33.22C 59.7864 34.36 60.6804 35.62 61.5324 37L 58.2024 37Z"/>
</defs>
</svg>
